<?xml version="1.0" standalone="no"?>
<svg viewBox="0 0 200 200" xmlns="http://www.w3.org/2000/svg">
  <path fill="#1B86BC" d="M41.1,-57.5C52.8,-48.2,61.2,-35.4,65.9,-21.4C70.5,-7.3,71.3,8.1,69.1,24.8C66.9,41.6,61.7,59.7,49.7,71.3C37.7,82.9,18.9,87.9,1.4,85.9C-16,83.9,-32,75,-47.7,64.6C-63.4,54.3,-78.7,42.4,-81.8,27.8C-84.9,13.1,-75.9,-4.3,-67.8,-19.9C-59.8,-35.5,-52.8,-49.3,-41.7,-58.8C-30.6,-68.3,-15.3,-73.5,-0.3,-73.1C14.8,-72.8,29.5,-66.9,41.1,-57.5Z" transform="translate(100 100)" />
</svg>
